<svg width="1535" height="373" viewBox="0 0 1535 373" fill="none" xmlns="http://www.w3.org/2000/svg">
<g clip-path="url(#clip0)">
<path d="M408.025 0C408.041 0.0327889 408.055 0.0820343 408.07 0.114823L408.057 0H408.025ZM408.07 0.114823L421.661 146.681C421.398 146.462 421.158 146.199 420.891 145.986L421.796 148.138L423.728 168.98C423.419 170.358 423.156 171.756 422.926 173.165H416.778L407.204 163.507L412.96 149.773C409.052 149.806 405.037 150.159 401.364 152.069C400.407 152.568 399.598 153.248 398.849 154.001L396.917 150.765L408.372 105.405C403.978 105.409 399.299 106.412 395.8 110.192C389.597 116.894 389.295 127.755 389.345 138.065L383.332 127.992C383.509 129.824 384.207 131.47 384.75 133.143C386.166 137.504 387.717 141.773 389.351 145.986C389.349 146.085 389.353 146.183 389.351 146.275C389.319 147.954 389.088 149.263 388.728 150.35C388.676 150.354 388.628 150.364 388.574 150.367C386.022 150.663 383.471 151.021 380.919 151.434C380.117 147.654 379.223 143.911 378.134 140.242C375.793 132.359 372.87 124.55 368.739 118.045L383.967 57.7243C381.573 60.8892 379.468 64.4108 377.543 68.0856C369.179 84.0541 363.981 102.473 359.46 120.841C356.345 133.497 353.783 146.386 351.676 159.406C349.935 160.108 348.208 160.868 346.49 161.659L345.496 160.66C344.77 156.095 343.985 151.549 343.121 147.028C339.479 127.976 335.076 108.777 327.611 91.7139L330.743 77.8026C328.253 79.4789 326.013 81.6243 323.966 84.0806C320.086 76.5694 315.422 69.4373 309.213 65.2556L316.195 96.2633C315.886 96.8601 315.539 97.4337 315.239 98.0339C307.374 113.745 302.619 131.676 298.843 149.807C295.542 149.889 292.206 150.312 289.076 151.738C286.84 137.053 284 122.531 280.496 108.294C279.758 105.296 278.958 102.312 278.173 99.3218C278.321 98.8775 278.498 98.4546 278.641 98.0087C279.184 96.3358 279.883 94.6896 280.059 92.8574L277.576 97.0176C273.679 82.4842 269.066 68.2305 262.419 55.5381C260.494 51.8635 258.382 48.3417 255.989 45.1768L271.602 107.023L243.751 153.704C242.402 152.479 240.979 151.391 239.483 150.493C239.027 150.217 238.566 149.96 238.085 149.765L241.961 156.704L237.148 164.769C235.671 161.604 234.126 158.496 232.469 155.492C229.032 149.26 224.877 143.556 220.193 138.828L231.905 12.5515C222.611 37.0902 216.842 63.7164 213.269 90.6725C211.817 101.631 210.722 112.636 209.887 123.671C209.287 125.665 208.735 127.682 208.174 129.695C206.354 128.724 204.488 127.906 202.585 127.255C200.281 124.222 197.839 121.377 195.237 118.876C179.215 103.474 159.995 93.9433 140.402 90.9012C138.39 90.588 136.365 90.3569 134.338 90.3503L148.263 103.719L199.947 153.34C198.45 154.401 197.014 155.616 195.628 156.915C192.339 153.83 188.731 151.308 184.86 149.773L189.898 163.235C187.491 166.291 185.304 169.623 183.307 173.165H165.307C164.264 171.167 163.169 169.223 162.028 167.327L169.664 153.459C170.079 152.795 170.509 152.15 170.916 151.476L171.262 150.553L176.781 140.539C167.309 140.87 158.479 145.633 150.933 152.883C149.815 151.785 148.674 150.723 147.48 149.774L148.263 151.646L149.399 154.357C146.459 157.386 143.724 160.779 141.262 164.465C140.915 162.278 140.574 160.094 140.19 157.916C136.928 139.386 133.06 119.657 122.934 105.406L130.269 173.165H128.543C126.226 170.148 123.719 167.403 121.061 164.947L123.396 149.774C121.047 153.479 118.888 157.373 116.902 161.415C115.449 160.293 113.954 159.269 112.436 158.305C110.058 143.46 106.934 128.807 102.855 114.632L103.92 110.421C103.18 110.422 102.43 110.503 101.681 110.569C99.862 104.565 97.8753 98.6483 95.6805 92.8536L97.4003 111.373C95.2088 112.093 93.1241 113.285 91.3489 115.203C83.7703 123.391 84.9911 137.778 84.906 149.769C84.8501 149.768 84.7955 149.76 84.7391 149.76L84.906 149.939V151.277C84.7615 159.461 80.1139 159.606 76.5444 161.689C73.3652 160.222 70.1396 158.932 66.8865 157.766C66.5843 155.935 66.2905 154.102 65.9689 152.277L68.2726 149.76C67.3565 149.773 66.4414 149.826 65.5261 149.892C63.7528 140.103 61.7204 130.4 59.3656 120.832C54.8446 102.464 49.6457 84.0454 41.2819 68.0769C39.3568 64.4021 37.2518 60.8805 34.8582 57.7155L58.3837 150.9C55.837 151.447 53.3177 152.208 50.8371 153.145C45.3655 151.929 39.8664 150.995 34.3705 150.358C33.8349 150.292 33.296 150.259 32.7598 150.21C30.4905 143.875 27.8266 137.798 24.7897 132.046L28.2742 123.743C25.6937 123.76 23.0809 123.947 20.5415 124.599C20.3674 124.319 20.2108 124.022 20.0344 123.743L20.1821 124.693C19.3646 124.919 18.5541 125.189 17.7564 125.53C17.6409 125.579 17.5363 125.662 17.4227 125.717L3.80541 102.902C3.98287 104.734 4.68075 106.38 5.22361 108.053C7.57314 115.289 10.2852 122.281 13.2002 129.132C10.7859 132.136 9.33839 136.355 9.3627 140.848C9.39623 145.73 11.0666 154.036 5.14661 153.624C3.50535 153.51 1.54556 153.723 0 154.633V191.215V196.264V205.652V373H1554.87V282.959V275.037V233.558V165.934C1552.21 158.547 1548.7 151.707 1543.97 146.533L1554.87 136.062V112.679C1545.51 117.383 1536.59 123.65 1528.5 131.427C1523.68 136.063 1519.29 141.692 1515.66 148.041C1515.56 144.184 1515.44 140.33 1515.28 136.477L1520.7 131.012C1518.83 131.97 1517 133.054 1515.17 134.105C1514.35 115.363 1512.93 96.677 1510.47 78.1298C1506.9 51.1737 1501.13 24.5474 1491.84 0.00900574L1502.95 119.787L1502.82 120.592C1499.09 125.867 1496.22 131.889 1493.91 138.316C1494.58 119.787 1493.83 101.132 1492.81 82.6709L1481.99 152.93L1467.11 127.997C1467.28 129.829 1467.98 131.475 1468.53 133.148C1471.67 142.841 1475.45 152.109 1479.56 161.139C1476.11 164.407 1472.73 167.818 1469.39 171.289C1469.44 168.612 1469.44 165.934 1469.3 163.257C1469.15 160.387 1468.82 157.072 1467.05 155.082C1466.53 154.498 1465.92 154.302 1465.3 154.243C1466.48 160.359 1467.31 166.589 1467.89 172.872C1467.79 172.971 1467.71 173.069 1467.61 173.169H1464.65C1464 167.101 1463.23 161.056 1462.38 155.031C1463.32 154.504 1464.33 154.145 1465.3 154.234C1464.38 149.491 1463.28 144.814 1461.92 140.238C1460.82 136.538 1459.54 132.896 1458.12 129.351C1456.95 123.261 1455.65 117.209 1454.25 111.204L1467.75 57.72C1465.36 60.885 1463.25 64.4066 1461.32 68.0814C1456.86 76.5983 1453.32 85.8206 1450.28 95.353C1446.34 80.5241 1441.67 65.9673 1434.9 53.0265C1432.97 49.3517 1430.87 45.8301 1428.47 42.6652L1445.75 111.111C1444.9 114.35 1444.04 117.587 1443.24 120.837C1439.03 137.937 1435.8 155.449 1433.4 173.16H1431.1C1430.12 165.678 1428.93 158.249 1427.59 150.87C1428.96 140.33 1429.43 129.593 1428.83 118.922L1423.86 132.206C1420.76 118.154 1416.92 104.352 1411.39 91.7184L1414.53 77.7988C1412.04 79.4751 1409.79 81.6203 1407.74 84.0766C1403.87 76.5654 1399.2 69.4418 1392.99 65.2601L1399.97 96.2511C1399.66 96.8495 1399.32 97.4282 1399.02 98.0302C1390.07 115.904 1385.1 136.641 1381.08 157.292L1366.8 119.134C1366 115.505 1365.17 111.885 1364.28 108.29C1363.54 105.291 1362.74 102.308 1361.96 99.318C1362.11 98.8737 1362.28 98.4506 1362.43 98.0047C1362.97 96.3318 1363.67 94.6859 1363.84 92.8536L1361.36 97.0135C1357.46 82.4805 1352.85 68.2267 1346.2 55.5341C1344.27 51.8595 1342.17 48.338 1339.77 45.173L1355.39 107.019L1341.27 130.681C1340.88 127.698 1340.24 124.76 1339.16 121.938L1337.37 126.191C1333.75 102.549 1328.31 79.3253 1320.12 57.72L1328.45 147.473L1321.84 163.239L1320.93 164.772C1319.45 161.606 1317.91 158.493 1316.25 155.487C1312.81 149.252 1308.66 143.544 1303.97 138.814L1315.68 12.5465C1306.39 37.0852 1300.63 63.7112 1297.05 90.6673C1295.6 101.634 1294.5 112.648 1293.67 123.691C1293.07 125.677 1292.52 127.685 1291.96 129.69C1290.13 128.716 1288.27 127.902 1286.36 127.25C1284.05 124.218 1281.62 121.371 1279.02 118.871C1263 103.469 1243.77 93.9382 1224.18 90.8959C1222.17 90.5828 1220.14 90.3516 1218.12 90.3451L1232.05 103.722L1283.73 153.335C1281.9 154.628 1280.15 156.108 1278.49 157.749C1274.09 162.102 1270.35 167.374 1267.09 173.16H1255.62L1251.47 160.824C1250.33 161.575 1248.91 162.298 1247.6 162.18C1250.07 158.726 1252.46 155.185 1254.7 151.471L1255.34 149.768L1249.5 155.648L1252.79 149.76C1252.31 149.955 1251.85 150.212 1251.4 150.488C1249.58 151.576 1247.89 152.962 1246.29 154.521C1245.02 145.898 1244.35 137.114 1244.06 128.316C1244.06 128.464 1244.06 128.771 1244.06 128.902C1243.86 136.985 1243.18 145.077 1243.6 153.166C1243.66 154.397 1243.78 155.697 1244.01 156.953C1243.06 158.072 1242.19 159.313 1241.33 160.562C1239.43 157.977 1237.4 155.542 1235.22 153.335C1233.95 152.053 1232.63 150.857 1231.27 149.768L1232.05 151.632L1238.05 165.967C1237.79 166.477 1237.47 166.956 1237.21 167.475C1237.05 167.815 1236.91 168.182 1236.75 168.526L1232.14 173.169H1223.2C1220.61 166.423 1217.58 159.991 1214.11 153.971L1199.53 59.296C1197.89 89.2693 1196.88 119.771 1201.61 149.379C1201.66 149.691 1201.72 149.991 1201.78 150.302C1187.95 135.64 1173.15 122.38 1157.04 112.585C1156.96 107.781 1156.25 103.045 1154.54 98.572L1150.26 108.781C1149.57 108.414 1148.91 107.992 1148.21 107.637L1149.99 109.424L1138.7 136.348L1135.58 143.77C1121.92 130.05 1107.27 118.001 1091.38 109.339L1093.08 107.637C1092.27 108.048 1091.5 108.538 1090.7 108.966C1089.91 108.538 1089.14 108.046 1088.33 107.637L1090.03 109.339C1080.08 114.764 1070.61 121.506 1061.57 129.181L1048.73 98.5715C1043.99 110.979 1046.67 125.434 1050.65 137.619C1050.76 137.965 1050.93 138.293 1051.05 138.636C1046.62 142.867 1042.29 147.287 1038.05 151.835C1037 152.142 1035.96 152.486 1034.92 152.86L1033.69 145.98C1033.52 148.485 1033.38 151.011 1033.23 153.529C1032.64 153.763 1032.06 153.985 1031.47 154.241C1030.61 152.731 1029.74 151.222 1028.82 149.767L1029.64 155.105C1026.75 156.505 1023.94 158.172 1021.24 160.103L1018.23 152.919C1019.36 151.205 1020.47 149.461 1021.54 147.683L1022.18 145.98L1017.36 150.843L1015.32 145.98C1014.68 147.688 1014.19 149.42 1013.81 151.165C1013.52 150.706 1013.27 150.222 1012.98 149.767L1013.47 152.944C1013.34 153.662 1013.22 154.381 1013.14 155.104L1006.71 161.585L1008.54 149.767C1005.93 153.884 1003.56 158.242 1001.39 162.771L1001.1 162.602L997.159 160.323L995.047 148.573L975.745 41.1552C973.663 71.2726 973.25 102.44 980.07 131.552C981.686 138.453 983.807 145.455 986.699 151.741C986.113 152.277 985.5 152.763 984.934 153.335C984.265 154.01 983.638 154.746 982.996 155.461C978.548 153.686 974.025 152.216 969.469 150.971C969.229 150.807 969 150.635 968.756 150.487C968.299 150.212 967.838 149.954 967.357 149.759L967.774 150.505C966.808 150.255 965.836 150.048 964.867 149.818L964.818 149.769V149.818C963.784 149.574 962.754 149.31 961.718 149.09C961.882 148.081 962.017 147.052 962.083 145.989L957.976 148.362C954.133 147.642 950.279 147.029 946.432 146.583C943.593 146.253 940.748 146 937.897 145.989L938.532 146.353L949.987 152.978L941.677 157.782C941.677 157.773 941.64 157.766 941.64 157.749C940.948 157.066 940.232 156.429 939.509 155.8C938.342 152.526 936.484 149.769 933.631 148.286C929.958 146.375 925.95 146.013 922.042 145.981L927.971 160.121C927.252 159.323 926.551 158.497 925.796 157.749C923.835 155.809 921.74 154.101 919.545 152.657C918.845 149.073 918.036 145.525 917.132 142.025L938.752 84.2287C933.386 86.3545 928.515 90.3064 924.313 95.1491C918.33 102.044 913.595 110.519 909.785 119.692C905.975 110.52 901.245 102.043 895.263 95.1491C891.06 90.3064 886.189 86.3545 880.824 84.2287L902.437 142.016C902.054 143.499 901.699 144.992 901.353 146.49C899.485 146.828 897.64 147.37 895.879 148.286C889.77 151.463 888.079 160.384 888.441 168.026C888.553 170.388 888.234 172 887.652 173.16H868.092C867.892 168.794 867.59 164.441 867.207 160.096L891.624 145.981C888.773 145.994 885.928 146.245 883.089 146.575C877.406 147.234 871.713 148.209 866.058 149.489C865.746 147.061 865.456 144.629 865.07 142.212C861.7 121.106 854.887 100.822 844.349 84.2289L854.866 152.505C850.177 153.995 845.547 155.774 840.999 157.868L830.237 147.007L839.908 84.2289C829.369 100.822 822.557 121.106 819.187 142.212C817.553 152.44 816.64 162.777 816.164 173.16H810.363L824.064 84.2289C813.525 100.822 806.713 121.106 803.343 142.212C802.445 147.837 801.809 153.501 801.289 159.181C799.103 154.584 796.71 150.156 794.063 145.982L796.829 163.942C793.177 164.29 788.609 164.985 788.878 158.249C789.058 153.736 788.211 147.345 783.59 148.041C774.273 149.444 767.29 135.969 758.692 131.079C752.135 127.351 744.713 124.556 737.592 125.454C737.592 117.131 736.874 108.821 735.07 100.597L717.891 168.628C716.01 165.36 713.949 162.294 711.711 159.452L716.749 145.982C712.879 147.516 709.276 150.039 705.987 153.124C704.089 151.343 702.079 149.778 699.974 148.464L700.905 145.982C699.94 146.364 698.995 146.824 698.062 147.32C697.128 146.824 696.185 146.364 695.219 145.982L696.15 148.464C695.152 149.087 694.176 149.763 693.223 150.497C692.394 149.753 691.571 148.999 690.727 148.278L692.415 151.108C691.635 151.742 690.883 152.424 690.137 153.124C689.03 152.086 687.883 151.124 686.704 150.235L695.039 125.479C693.742 126.412 692.627 127.737 691.561 129.071C687.478 134.185 684.465 140.529 682.019 147.227C681.149 146.773 680.273 146.339 679.375 145.981L680.973 150.251C680.411 151.927 679.84 153.599 679.337 155.292C677.978 159.869 676.866 164.545 675.948 169.288C676.529 169.239 677.118 169.337 677.713 169.568C677.05 170.75 676.39 171.936 675.769 173.16H675.274C675.495 171.868 675.7 170.572 675.948 169.289C675.444 169.338 674.958 169.489 674.517 169.864L663.396 97.716C662.507 113.967 661.846 130.367 662.145 146.701C662.145 146.705 662.145 146.705 662.113 146.71C659.867 148.058 657.792 149.814 655.881 151.861L647.616 75.5021C646.643 100.139 645.85 125.008 646.159 149.785C646.084 149.703 646.013 149.621 645.941 149.548C644.672 148.265 643.351 147.069 641.982 145.981L646.236 156.122C646.302 159.3 646.449 162.471 646.557 165.645L643.836 168.39L629.257 110.635C627.102 120.455 626.47 130.398 626.812 140.338C624.935 136.775 622.839 133.419 620.529 130.316C625.901 119.165 630.755 107.637 634.698 95.4958C635.241 93.8231 635.94 92.177 636.117 90.3448L615.723 124.521C614.741 123.452 613.767 122.361 612.745 121.378C596.723 105.976 577.502 96.4453 557.91 93.403C555.898 93.0899 553.873 92.8587 551.846 92.8521L552.481 93.462L604.467 143.38L601.759 147.92L602.054 145.98C601.132 147.435 600.27 148.944 599.404 150.454C592.916 147.597 586.077 146.074 579.247 145.98L583.2 150.301C582.87 150.127 582.544 149.941 582.212 149.768L583.803 151.378C580.635 153.568 577.861 156.605 575.41 160.071C573.402 159.036 571.377 158.067 569.333 157.165C573.323 148.42 575.823 138.593 576.032 128.199L557.063 146.414C556.311 146.512 555.56 146.628 554.81 146.761C554.377 139.451 552.995 132.528 548.573 127.75C545.074 123.969 540.395 122.968 536.002 122.963L542.509 148.744C537.974 147.829 533.418 147.102 528.872 146.575C526.033 146.245 523.188 145.993 520.337 145.981L527.351 150.04L522.789 154.64L520.748 149.768C519.711 152.519 519.047 155.327 518.662 158.164C516.818 154.82 514.732 151.735 512.29 149.124L514.466 140.509L521.428 112.932C517.035 112.936 512.356 113.93 508.857 117.71C500.969 126.233 502.633 141.545 502.414 153.801C502.302 160.088 499.529 161.617 496.632 162.934C494.136 161.704 491.614 160.562 489.066 159.528C488.226 157.749 487.344 156.005 486.435 154.284L489.92 145.981C487.347 145.998 484.742 146.219 482.206 146.872C482.026 146.58 481.863 146.27 481.68 145.981L481.828 146.955C480.64 147.285 479.466 147.687 478.33 148.277C475.936 149.521 474.241 151.67 473.062 154.258C471.1 153.751 469.131 153.281 467.158 152.859C467.322 151.848 467.457 150.823 467.524 149.758L463.417 152.131C460.815 151.644 458.213 151.227 455.607 150.868L505.584 102.883C503.557 102.891 501.539 103.12 499.526 103.433C479.934 106.476 460.707 116.007 444.685 131.408C444.485 131.602 444.3 131.83 444.101 132.026L443.177 130.484C443.246 131.197 443.433 131.864 443.62 132.534C439.222 136.956 435.196 142.16 431.844 148.029C431.214 124.607 429.72 101.255 426.653 78.1095C423.086 51.1969 417.336 24.6128 408.068 0.107068L408.07 0.114823ZM1244.06 128.322C1244.15 123.555 1243.9 111.364 1243.88 115.657C1243.84 119.866 1243.93 124.097 1244.06 128.322ZM1090.71 110.031L1115.89 135.448L1132.19 151.883L1131.91 152.552C1128.81 151.924 1125.7 151.418 1122.59 150.977C1122.22 149.298 1121.75 147.63 1121.13 145.986L1119.23 150.511C1118.87 150.461 1118.51 150.412 1118.15 150.363C1115.6 150.066 1113.05 149.857 1110.48 149.804L1110.55 149.771C1110.39 149.772 1110.24 149.785 1110.08 149.788C1109.93 149.786 1109.78 149.771 1109.62 149.771L1109.68 149.804C1107.12 149.853 1104.56 150.066 1102.01 150.363C1097.38 150.901 1092.74 151.634 1088.12 152.574C1087.01 151.873 1085.91 151.159 1084.8 150.49V150.482C1083.24 149.549 1081.68 148.649 1080.1 147.779L1081.11 145.975C1080.63 146.17 1080.16 146.445 1079.7 146.721C1079.46 146.868 1079.24 147.034 1079 147.186C1078.27 146.788 1077.54 146.367 1076.8 145.983L1078.39 147.593C1076.02 149.231 1073.84 151.3 1071.87 153.701L1064.6 136.384L1090.71 110.031ZM273.129 113.073L275.978 124.366C275.306 125.056 274.662 125.791 274.046 126.56C268.344 133.701 264.668 143.207 261.822 152.79C261.582 153.596 261.392 154.426 261.167 155.238C260.28 154.318 259.347 153.479 258.389 152.697L259.614 149.774C258.821 150.405 258.083 151.141 257.323 151.841C256.69 151.374 256.047 150.928 255.385 150.528C261.866 138.465 267.949 126.081 273.129 113.073H273.129ZM1356.92 113.073L1359.77 124.366C1359.09 125.056 1358.45 125.789 1357.83 126.56C1356.88 127.752 1356 129.034 1355.16 130.347L1352.57 123.442C1354.09 120.034 1355.53 116.567 1356.92 113.073V113.073ZM1156.93 116.436L1171.22 130.856L1190.83 150.629C1190.09 151.815 1189.38 153.026 1188.68 154.247C1182.2 151.39 1175.36 149.867 1168.53 149.774L1171.22 152.714L1182.95 165.523C1181.82 168.024 1180.75 170.568 1179.76 173.165H1179.43C1177.98 171.97 1176.51 170.842 1175.05 169.869C1166.39 164.12 1157.25 159.873 1147.86 156.763C1146.81 155.589 1145.76 154.406 1144.69 153.247C1147.52 148.147 1150.84 143.132 1152.63 137.625C1154.79 131.003 1156.52 123.708 1156.93 116.436H1156.93ZM321.393 119.342L332.636 169.285C332.32 169.49 331.993 169.66 331.679 169.87C330.214 170.844 328.748 171.97 327.296 173.166H314.334L314.898 170.65C313.8 171.389 312.768 172.256 311.76 173.166H311.125C310.74 172.161 310.349 171.166 309.944 170.175L321.393 119.342ZM1405.17 119.342L1408.05 132.109L1393.6 170.734L1405.17 119.342ZM367.134 124.383L376.51 152.247C373.389 152.843 370.276 153.51 367.179 154.315L368.123 150.579C367.095 151.938 366.146 153.392 365.216 154.865C363.127 155.442 361.04 156.046 358.972 156.729L367.134 124.383ZM1360.23 126.179L1366.77 152.087L1364.93 156.475L1357.08 135.507L1360.23 126.179ZM276.44 126.188L284.025 156.213C283.661 156.795 283.307 157.388 283.011 158.034L275.272 150.231L275.465 149.774C275.347 149.872 275.241 149.984 275.124 150.079L274.823 149.774L274.983 150.207C273.791 151.185 272.62 152.215 271.505 153.341C269.322 155.547 267.294 157.976 265.39 160.56C265.274 160.391 265.153 160.227 265.037 160.059L276.44 126.188ZM1350.64 127.637C1350.64 131.14 1350.74 134.641 1350.94 138.134C1348.82 142.781 1347.09 147.771 1345.6 152.791C1344.25 157.367 1343.14 162.044 1342.22 166.786C1342.99 166.721 1343.78 166.901 1344.55 167.27L1342.4 172.412C1342.28 170.804 1342.18 169.198 1342.06 167.592C1342.1 167.321 1342.17 167.057 1342.22 166.787C1342.15 166.795 1342.07 166.774 1342 166.787C1341.53 160.911 1340.97 155.046 1340.34 149.19C1340.43 148.744 1340.52 148.297 1340.6 147.852C1344.11 141.235 1347.47 134.507 1350.64 127.638L1350.64 127.637ZM1450.02 127.985L1461.42 173.166H1456L1448.32 164.779L1451.91 150.579C1449.52 153.744 1447.41 157.266 1445.48 160.941C1443.42 164.88 1441.55 168.966 1439.83 173.166H1438.61L1450.02 127.985ZM99.0815 129.576L101.238 152.798C98.7741 151.92 96.266 151.237 93.7424 150.74L99.0815 129.576ZM737.343 134.558L753.63 146.461C753.024 146.961 752.445 147.514 751.859 148.053C751.209 147.573 750.549 147.123 749.869 146.715C749.412 146.44 748.951 146.173 748.47 145.977L750.376 149.392C750.314 149.457 750.252 149.49 750.197 149.561C748.011 151.769 745.988 154.2 744.081 156.787C741.703 153.334 739.018 150.264 735.944 148.01C736.552 143.539 737.065 139.058 737.343 134.565L737.343 134.558ZM19.8611 143.809C21.3978 146.976 22.9685 150.118 24.5778 153.23L26.7211 167.141C24.088 161.177 20.7669 155.827 16.537 151.739L19.8611 143.809ZM1054.69 146.385C1057.35 151.158 1060.31 155.794 1062.06 160.745C1056.26 163.273 1050.58 166.245 1045.11 169.878C1043.65 170.85 1042.18 171.979 1040.73 173.174H1040.4C1039.41 170.58 1038.34 168.038 1037.22 165.54L1038.13 164.54L1051.63 149.782C1051.52 149.783 1051.41 149.787 1051.3 149.79L1053.97 147.096L1054.69 146.385ZM753.88 146.655L756.299 148.426L762.774 153.154C761.791 154.321 760.846 155.538 759.925 156.788C757.848 153.772 755.54 151.049 752.93 148.917L753.88 146.655ZM830.104 148.036C832.52 152.012 835.109 155.78 837.772 159.465C834.266 161.217 830.816 163.158 827.44 165.336L830.104 148.036ZM662.21 148.392C662.21 148.883 662.243 149.375 662.243 149.865L660.273 151.848L662.21 148.392ZM1079.54 148.764L1084.2 153.466C1081.33 154.131 1078.48 154.889 1075.64 155.745L1079.54 148.764ZM1541.41 148.983L1543.77 162.107C1541.19 161.426 1538.53 161.239 1535.91 161.225L1540.91 173.162H1516.33L1516.41 172.975L1541.41 148.983ZM610.751 149.382L614.075 152.576C613.168 154.231 612.285 155.913 611.444 157.625C610.222 156.682 608.971 155.814 607.703 154.982C608.729 153.124 609.739 151.253 610.751 149.382V149.382ZM1411.95 149.431H1411.96L1412.09 150.016L1411.92 149.618C1411.92 149.552 1411.96 149.487 1411.96 149.431H1411.95ZM1110.08 150.033L1117.61 154.379L1114.35 162.148C1111.13 162.83 1107.93 163.612 1104.74 164.511C1101.95 162.258 1099.11 160.097 1096.24 158.03L1096.62 157.811L1100.74 155.43L1110.08 150.033ZM527.52 150.115L534.296 154.037L535.124 154.511C531.868 156.578 528.752 159.005 525.825 161.788L523.695 156.714C524.827 154.995 525.929 153.252 527.006 151.469L527.52 150.115ZM275.125 150.572L275.465 151.47C277.505 154.848 279.651 158.096 281.875 161.256C280.966 164.604 280.671 168.333 280.836 171.812C280.868 172.302 280.836 172.728 280.836 173.16H271.916C271.194 171.213 270.421 169.301 269.516 167.475C269.256 166.954 268.947 166.472 268.675 165.958L275.125 150.572ZM1191.15 150.944L1200.97 160.856C1200.89 161.042 1200.78 161.22 1200.69 161.407C1197.45 158.909 1194.04 156.814 1190.51 155.104L1191.15 150.944ZM735.495 151.108L741.091 161.122C738.659 164.904 736.464 168.961 734.436 173.161H731.298C732.929 165.9 734.376 158.535 735.495 151.108V151.108ZM254.885 151.472L255.841 153.175C255.781 153.241 255.72 153.273 255.661 153.344C253.927 155.096 252.315 157.023 250.759 159.02C252.148 156.516 253.521 153.999 254.885 151.471L254.885 151.472ZM751.724 151.793L756.299 159.986L756.935 161.13C754.889 164.312 753.01 167.687 751.255 171.178C750.384 168.595 749.389 166.081 748.207 163.698C747.948 163.178 747.637 162.701 747.367 162.189L751.724 151.793ZM584.998 152.547L587.931 155.504L588.74 156.326L593.604 161.638L589.388 168.703C588.197 167.762 586.996 166.871 585.801 166.077C583.75 164.715 581.672 163.455 579.57 162.256L584.998 152.547ZM662.313 152.679C662.546 159.532 662.999 166.362 663.68 173.164H661.742C660.356 170.294 658.887 167.494 657.32 164.802L656.846 160.431C658.705 157.89 660.561 155.349 662.313 152.679V152.679ZM987.434 153.246C988.395 155.207 989.451 157.063 990.585 158.838C989.056 158.097 987.513 157.421 985.965 156.753L987.434 153.246ZM698.089 153.585L698.949 155.881C698.533 155.467 698.111 155.07 697.691 154.662L698.089 153.585ZM297.874 154.543C297.539 156.226 297.155 157.902 296.834 159.584C296.762 159.966 296.698 160.353 296.629 160.736C296.303 160.438 295.983 160.12 295.647 159.838L297.874 154.543ZM451.739 154.641C452.219 155.794 452.671 156.964 453.164 158.106L445.797 162.359C445.672 161.812 445.537 161.269 445.379 160.741L451.739 154.641ZM15.3049 154.69L18.629 173.185H7.55313L11.7885 163.078L15.3049 154.69ZM616.552 154.979L622.161 160.367L619.966 165.603C618.566 164.032 617.1 162.578 615.596 161.189L616.552 154.979ZM34.9159 155.045L39.7608 157.857L40.5823 158.331C39.6876 158.898 38.8046 159.487 37.932 160.11L34.9159 155.045ZM766.008 155.536L786.12 170.244C786.916 171.231 787.711 172.215 788.514 173.192H769.711V173.176C769.042 172.597 768.292 172.426 767.523 172.387C767.61 172.653 767.674 172.925 767.754 173.192H763.737C764.931 172.748 766.258 172.326 767.523 172.387C766.57 169.377 765.428 166.47 764.064 163.72C763.808 163.2 763.494 162.723 763.223 162.212L766.008 155.536ZM257.182 155.602L259.826 160.329C259.316 162.474 258.855 164.634 258.433 166.81C259.248 166.728 260.103 166.942 260.917 167.353C259.776 169.249 258.681 171.192 257.638 173.19H257.343C257.674 171.054 258.025 168.922 258.433 166.811C257.811 166.876 257.206 167.068 256.688 167.65C255.93 168.501 255.477 169.621 255.148 170.819C254.679 169.699 254.199 168.582 253.665 167.506C253.409 166.987 253.096 166.509 252.825 165.998L257.182 155.602ZM510.694 155.61L511.489 160.05L512.407 165.158L511.489 166.081L508.133 169.47C507.864 169.295 507.588 169.144 507.318 168.97L510.694 155.61ZM1353.09 157.466C1353.98 162.788 1355.12 168.033 1356.46 173.181H1349.17C1350.67 168.031 1351.98 162.784 1353.09 157.466ZM1410.78 157.466C1411.21 159.506 1411.66 161.54 1412.14 163.557L1408.54 173.181H1407.41C1408.75 168.033 1409.89 162.788 1410.78 157.466H1410.78ZM91.9841 157.712L95.6804 161.744L99.1585 165.548C98.0331 168.046 96.9698 170.587 95.9755 173.182H95.6483C94.1974 171.985 92.7304 170.859 91.2654 169.886C90.5944 169.44 89.9012 169.06 89.2247 168.632L91.9841 157.712ZM1123.55 157.843L1127.2 159.952C1126 160.118 1124.81 160.254 1123.61 160.444C1123.61 159.575 1123.58 158.709 1123.55 157.843L1123.55 157.843ZM696.485 157.892L698.673 161.569C698.483 161.83 698.275 162.067 698.089 162.331C697.388 161.338 696.635 160.409 695.894 159.468L696.44 158.01L696.485 157.892ZM958.794 158.071L974.471 167.136C973.287 169.095 972.151 171.107 971.07 173.176H953.07C952.263 171.745 951.419 170.351 950.548 168.991C953.777 165.971 956.678 162.331 958.794 158.071ZM684.009 158.325L684.439 159.469C683.949 160.092 683.462 160.722 682.989 161.367L684.009 158.325ZM394.825 159.063C394.979 159.408 395.143 159.748 395.3 160.095C394.107 163.724 393.742 167.939 393.926 171.829C393.959 172.319 393.926 172.746 393.926 173.177H391.263L394.825 159.063ZM1368.57 159.231L1372.09 173.185H1371.17L1367.57 163.561C1367.91 162.123 1368.26 160.681 1368.57 159.231V159.231ZM1012.83 160.587C1012.83 162.692 1013.04 164.8 1013.28 166.907C1012.71 167.484 1012.16 168.091 1011.6 168.695L1008.23 166.746C1009.8 164.74 1011.32 162.659 1012.83 160.587H1012.83ZM1091.47 160.815L1097.43 166.83C1093.27 168.271 1089.17 169.96 1085.15 171.914C1085.19 171.468 1085.2 171.017 1085.2 170.592C1085.2 169.24 1085.14 166.607 1085.11 164.492L1091.47 160.815ZM377.286 161.256C375.598 164.93 374.554 168.969 373.815 173.185H362.418L363.406 169.279L377.286 161.256ZM909.812 161.689L914.111 173.185H905.512L909.812 161.689ZM464.265 161.868L470.901 165.705C470.901 166.496 470.9 167.281 470.933 168.052C471.045 170.415 470.726 172.027 470.144 173.186H468.68L463.162 163.943C463.556 163.271 463.914 162.574 464.265 161.868H464.265ZM1247.6 162.215C1248.32 165.923 1249.19 169.576 1250.17 173.187H1249.09C1247.77 170.656 1246.38 168.194 1244.9 165.833C1245.8 164.626 1246.72 163.447 1247.6 162.215H1247.6ZM294.421 162.791L295.461 167.408C295.303 168.316 295.131 169.218 294.979 170.127L292.425 167.552L294.421 162.791ZM1083.92 165.188C1083.55 167.897 1083.05 170.567 1082.43 173.186H1080.02L1078.08 168.56L1082.47 166.019L1083.92 165.188ZM1126.39 165.713L1123.54 172.507L1123.26 173.185H1122.16C1122.54 171.335 1122.85 169.483 1123.09 167.619L1123.54 167.356L1126.39 165.713ZM53.5899 165.844L63.6136 171.639L64.005 173.19H46.8647L49.8038 169.979L53.5899 165.844ZM856.972 166.056L858.076 173.189H856.19L851.98 168.944L856.972 166.056ZM1447.96 166.259C1448 166.603 1448 166.941 1448.02 167.284C1448.23 169.278 1448.55 171.244 1448.93 173.18H1446.2L1447.96 166.259ZM629.001 166.928L629.957 167.843C630.276 169.628 630.621 171.404 630.971 173.18H628.334C628.656 171.099 628.894 169.014 629.001 166.928L629.001 166.928ZM1283.72 167.059C1283.37 169.096 1283.02 171.132 1282.7 173.176H1281.43L1283.72 167.059ZM1139.78 167.228H1139.79L1150.08 173.175H1139.57C1139.76 172.405 1139.88 171.559 1139.79 170.515C1139.69 169.392 1139.71 168.303 1139.79 167.228H1139.78ZM744.928 167.998L747.822 173.175H742.759L744.928 167.998ZM760.772 167.998L763.666 173.175H758.603L760.772 167.998ZM600.021 168.659L604.147 173.166H597.903L598.07 172.099C598.722 170.956 599.37 169.813 600.021 168.668V168.659ZM897.58 169.633C897.469 170.812 897.321 171.984 897.228 173.166H896.098L897.58 169.633ZM561.922 170.005L567.383 173.165H561.216C560.782 172.97 560.358 172.759 559.933 172.547C560.598 171.701 561.287 170.891 561.922 170.006V170.005ZM1301.09 170.005L1301.75 170.649C1301.75 170.534 1301.75 170.436 1301.75 170.328L1303.31 173.166H1300.8L1301.09 170.005ZM458.637 170.12C459.13 171.146 459.657 172.149 460.158 173.17H455.608C456.652 172.217 457.665 171.198 458.637 170.12ZM479.589 170.713L481.714 171.941L483.844 173.169H478.563L479.589 170.713ZM513.434 170.861L513.851 173.174H513.19C512.865 172.906 512.547 172.616 512.221 172.36C512.622 171.855 513.035 171.369 513.434 170.86V170.861ZM1032.11 171.115L1032.43 173.174H1030.22L1032.11 171.115ZM847.199 171.69C847.601 172.184 848.002 172.68 848.405 173.172H844.632L847.199 171.69ZM250.386 171.789L251.163 173.177H249.802L250.386 171.789ZM266.237 171.789L267.013 173.177H265.653L266.237 171.789ZM979.663 171.797L980.433 173.178H979.085L979.663 171.797ZM1240.5 171.797L1241.07 173.178H1239.73L1240.5 171.797ZM750.671 172.391C750.54 172.655 750.415 172.922 750.286 173.188H747.88C748.762 172.86 749.72 172.529 750.671 172.391H750.671Z" fill="#ccc"/>
</g>
<defs>
<clipPath id="clip0">
<rect width="2000" height="373" fill="white"/>
</clipPath>
</defs>
</svg>
